<svg height="512" viewBox="0 0 128 128" width="512" xmlns="http://www.w3.org/2000/svg"><g><path d="m37.747 72.41a13.041 13.041 0 1 0 13.044 13.044v-.008a13.064 13.064 0 0 0 -13.044-13.036zm11.294 13.038-1.75.006a9.54 9.54 0 1 1 -9.544-9.544 9.552 9.552 0 0 1 9.544 9.544z"/><path d="m107.832 74.928-7.493-26.418a15.581 15.581 0 0 0 -6.371-9.563l-1.094-3.874a10.125 10.125 0 0 0 -20.03 2.1v5.237a15.513 15.513 0 0 0 -2.985 7.54h-11.718a15.517 15.517 0 0 0 -2.985-7.54v-5.238a10.125 10.125 0 0 0 -20.03-2.1l-1.094 3.874a15.578 15.578 0 0 0 -6.371 9.563l-7.493 26.421a20.495 20.495 0 1 0 38.081 10.526v-9.956h11.5v9.958a20.5 20.5 0 1 0 38.081-10.528zm-10.909-25.654c.009.043.019.086.032.129l5.56 19.607a20.5 20.5 0 0 0 -29.264 5.008v-22.349a11.955 11.955 0 0 1 23.672-2.395zm-13.957-18.724a6.652 6.652 0 0 1 6.493 5.294c.009.041.018.082.03.123l.261.924a15.363 15.363 0 0 0 -13.406 2.134v-1.853a6.63 6.63 0 0 1 6.622-6.622zm-13.215 33.091h-11.5v-10.192h11.5zm-31.21-27.8a6.625 6.625 0 0 1 13.115 1.328v1.852a15.366 15.366 0 0 0 -13.406-2.13l.261-.924c.012-.041.021-.082.03-.123zm-7.496 13.559c.013-.043.023-.086.032-.129a12.078 12.078 0 0 1 5.4-7.771 11.961 11.961 0 0 1 18.272 10.169v22.349a20.505 20.505 0 0 0 -29.264-5.009zm6.7 53.047a17 17 0 1 1 17-17v.008a17.019 17.019 0 0 1 -17 16.995zm20.504-30.447v-4.859h11.5v4.859zm32.006 30.45a17.019 17.019 0 0 1 -17-16.994v-.008a17 17 0 1 1 17 17z"/><path d="m90.253 72.41a13.064 13.064 0 0 0 -13.044 13.036v.008a13.04 13.04 0 1 0 13.044-13.044zm0 22.582a9.552 9.552 0 0 1 -9.544-9.538 9.542 9.542 0 1 1 9.544 9.542z"/></g></svg>