<svg id="Layer_1" enable-background="new 0 0 512 512" height="512" viewBox="0 0 512 512" width="512" xmlns="http://www.w3.org/2000/svg"><g><path d="m256 512c-68.38 0-132.668-26.628-181.02-74.98s-74.98-112.64-74.98-181.02 26.629-132.667 74.98-181.02 112.64-74.98 181.02-74.98 132.668 26.628 181.02 74.98 74.98 112.64 74.98 181.02-26.629 132.667-74.98 181.02-112.64 74.98-181.02 74.98zm0-480c-123.514 0-224 100.486-224 224s100.486 224 224 224 224-100.486 224-224-100.486-224-224-224z"/><path d="m320 360h-32c-36.743 0-69.097-19.153-87.602-48h71.602c8.837 0 16-7.164 16-16s-7.163-16-16-16h-85.2c-1.828-7.707-2.8-15.742-2.8-24s.973-16.293 2.8-24h85.2c8.837 0 16-7.164 16-16s-7.163-16-16-16h-71.602c18.505-28.847 50.859-48 87.602-48h24c8.837 0 16-7.164 16-16s-7.163-16-16-16h-24c-55.039 0-102.545 32.865-123.929 80h-20.071c-8.837 0-16 7.164-16 16s7.163 16 16 16h10.121c-1.393 7.793-2.121 15.813-2.121 24s.728 16.207 2.121 24h-10.121c-8.837 0-16 7.164-16 16s7.163 16 16 16h20.071c21.383 47.135 68.89 80 123.929 80h32c8.837 0 16-7.164 16-16s-7.163-16-16-16z"/></g></svg>