<svg xmlns="http://www.w3.org/2000/svg" viewBox="0 0 24 24">
  <g id="Group_88" data-name="Group 88" transform="translate(-79 -612)">
    <g id="verify" transform="translate(79 612)">
      <path id="Path_65" data-name="Path 65" d="M23,24a1,1,0,0,1-.707-.293l-6.98-6.98a1,1,0,1,1,1.414-1.414l6.98,6.98A1,1,0,0,1,23,24Z" fill="#fff"/>
      <path id="Path_66" data-name="Path 66" d="M9.75,19.5A9.75,9.75,0,1,1,19.5,9.75,9.761,9.761,0,0,1,9.75,19.5ZM9.75,2A7.75,7.75,0,1,0,17.5,9.75,7.759,7.759,0,0,0,9.75,2Z" fill="#fff"/>
    </g>
    <g id="Group_87" data-name="Group 87" transform="translate(83 616.494)">
      <g id="Group_4" data-name="Group 4">
        <g id="Group_3" data-name="Group 3">
          <path id="Path_6" data-name="Path 6" d="M11.251,70.82a5.208,5.208,0,0,0-4.239-5.212,1.113,1.113,0,0,0,.113-.483,1.125,1.125,0,1,0-2.25,0,1.113,1.113,0,0,0,.113.483A5.205,5.205,0,0,0,.749,70.819,1.122,1.122,0,0,0,1.125,73h9.75a1.122,1.122,0,0,0,.376-2.18ZM6,64.75a.374.374,0,0,1,.012.748H5.988A.374.374,0,0,1,6,64.75ZM3.647,66.912a4.5,4.5,0,0,1,2.333-.663.171.171,0,0,1,.02,0l.019,0a4.5,4.5,0,0,1,4.483,4.5h-9A4.483,4.483,0,0,1,3.647,66.912Zm7.228,5.339H1.125a.375.375,0,1,1,0-.75h9.75a.375.375,0,1,1,0,.75Z" transform="translate(0 -64)" fill="#fff"/>
        </g>
      </g>
      <g id="Group_6" data-name="Group 6" transform="translate(5.724 3)">
        <g id="Group_5" data-name="Group 5">
          <path id="Path_7" data-name="Path 7" d="M243.167,193.247A3.755,3.755,0,0,0,240.375,192a.375.375,0,0,0,0,.75,3,3,0,0,1,2.234,1,.375.375,0,1,0,.558-.5Z" transform="translate(-240 -192)" fill="#fff"/>
        </g>
      </g>
    </g>
  </g>
</svg>
