<svg id="Capa_1" enable-background="new 0 0 512 512" height="512" viewBox="0 0 512 512" width="512" xmlns="http://www.w3.org/2000/svg"><g id="XMLID_829_"><path id="XMLID_1343_" d="m264.161 96.161c-88.135 0-159.838 71.703-159.838 159.839s71.703 159.839 159.838 159.839 159.839-71.703 159.839-159.839-71.704-159.839-159.839-159.839zm0 299.678c-77.107 0-139.838-62.731-139.838-139.839s62.731-139.839 139.838-139.839c77.108 0 139.839 62.732 139.839 139.839s-62.731 139.839-139.839 139.839z"/><path id="XMLID_1351_" d="m284.401 246c-2.207-4.427-5.813-8.032-10.24-10.24v-23.76c0-5.522-4.477-10-10-10s-10 4.478-10 10v23.614c-7.639 3.674-12.911 11.486-12.911 20.529 0 12.574 10.194 22.768 22.768 22.768 9.043 0 16.855-5.273 20.529-12.912h71.453c5.523 0 10-4.478 10-10s-4.477-10-10-10h-71.599z"/><path id="XMLID_1391_" d="m264.16 344.17c-2.63 0-5.21 1.07-7.07 2.93s-2.93 4.44-2.93 7.07 1.07 5.21 2.93 7.07c1.86 1.859 4.44 2.93 7.07 2.93s5.21-1.07 7.07-2.93 2.93-4.44 2.93-7.07-1.07-5.21-2.93-7.07c-1.86-1.859-4.44-2.93-7.07-2.93z"/><path id="XMLID_1394_" d="m264.16 167.83c2.63 0 5.21-1.07 7.07-2.931 1.86-1.859 2.93-4.439 2.93-7.069s-1.07-5.21-2.93-7.07-4.44-2.93-7.07-2.93-5.21 1.069-7.07 2.93-2.93 4.44-2.93 7.07c0 2.64 1.07 5.21 2.93 7.069 1.86 1.861 4.44 2.931 7.07 2.931z"/><path id="XMLID_1519_" d="m165.99 246c-2.63 0-5.21 1.069-7.07 2.93s-2.93 4.44-2.93 7.07 1.07 5.21 2.93 7.069c1.86 1.86 4.44 2.931 7.07 2.931s5.21-1.07 7.07-2.931c1.86-1.859 2.93-4.439 2.93-7.069s-1.07-5.21-2.93-7.07-4.44-2.93-7.07-2.93z"/><path id="XMLID_1522_" d="m506.713 70.46c-3.255-1.741-7.204-1.545-10.271.506-35.342 23.628-56.442 63.115-56.442 105.628v49.449c0 8.616 4.87 16.112 12 19.891v166.787c0 16.542 13.458 30 30 30s30-13.458 30-30v-333.441c0-3.691-2.032-7.081-5.287-8.82zm-46.713 106.134c0-29.052 11.694-56.427 32-76.355v128.305h-29.5c-1.378 0-2.5-1.121-2.5-2.5zm32 236.127c0 5.514-4.486 10-10 10s-10-4.486-10-10v-164.178h20z"/><path id="XMLID_1526_" d="m90 69.28c-5.523 0-10 4.478-10 10v44.167h-20v-44.167c0-5.522-4.477-10-10-10s-10 4.478-10 10v44.167h-20v-44.167c0-5.522-4.477-10-10-10s-10 4.478-10 10v82.164c0 15.774 7.536 30.609 20 39.986v211.291c0 16.542 13.458 30 30 30s30-13.458 30-30v-211.291c12.464-9.377 20-24.212 20-39.986v-82.164c0-5.523-4.477-10-10-10zm-10 92.164c0 10.667-5.751 20.622-15.009 25.98-3.089 1.788-4.991 5.087-4.991 8.655v216.642c0 5.514-4.486 10-10 10s-10-4.486-10-10v-216.642c0-3.568-1.902-6.867-4.991-8.655-9.258-5.358-15.009-15.313-15.009-25.98v-17.997h60z"/></g></svg>