<?xml version="1.0" encoding="iso-8859-1"?>
<!DOCTYPE svg PUBLIC "-//W3C//DTD SVG 1.1//EN" "http://www.w3.org/Graphics/SVG/1.1/DTD/svg11.dtd">
<svg version="1.1" id="Capa_1" xmlns="http://www.w3.org/2000/svg" xmlns:xlink="http://www.w3.org/1999/xlink" x="0px" y="0px"
	  viewBox="0 0 30.271 30.271" style="enable-background:new 0 0 30.271 30.271;"
	 xml:space="preserve">
	<g>
		<path d="M26.364,0h-2.347v4.978c0,1.954-0.711,2.664-2.664,2.664H8.919c-1.954,0-2.665-0.71-2.665-2.664V0H3.908
			C1.954,0,0.355,1.599,0.355,3.553v23.165c0,1.954,1.599,3.553,3.553,3.553h22.455c1.954,0,3.553-1.599,3.553-3.553V3.552
			C29.916,1.598,28.318,0,26.364,0z M15.135,28.494c0,0-9.965-5.256-9.261-12.043c0.545-5.271,6.426-5.188,9.261-2.645
			c2.835-2.543,8.718-2.626,9.263,2.645C25.101,23.238,15.135,28.494,15.135,28.494z"/>
		<rect x="20.021" y="1.156" width="2.221" height="5.329"/>
	</g>
</svg>
