<svg xmlns="http://www.w3.org/2000/svg" width="128.989" height="11.855" viewBox="0 0 128.989 11.855">
  <g id="Group_61" data-name="Group 61" transform="translate(-119.86 -616.573)">
    <g id="Ellipse_33" data-name="Ellipse 33" transform="translate(237.28 616.573)" fill="#fff" stroke="#32506f" stroke-width="1">
      <circle cx="5.785" cy="5.785" r="5.785" stroke="none"/>
      <circle cx="5.785" cy="5.785" r="5.285" fill="none"/>
    </g>
    <g id="Ellipse_34" data-name="Ellipse 34" transform="translate(217.71 616.573)" fill="#fff" stroke="#32506f" stroke-width="1">
      <circle cx="5.785" cy="5.785" r="5.785" stroke="none"/>
      <circle cx="5.785" cy="5.785" r="5.285" fill="none"/>
    </g>
    <g id="Ellipse_35" data-name="Ellipse 35" transform="translate(198.14 616.857)" fill="#fff" stroke="#32506f" stroke-width="1">
      <circle cx="5.785" cy="5.785" r="5.785" stroke="none"/>
      <circle cx="5.785" cy="5.785" r="5.285" fill="none"/>
    </g>
    <g id="Ellipse_18" data-name="Ellipse 18" transform="translate(178.57 616.573)" fill="#fff" stroke="#32506f" stroke-width="1">
      <circle cx="5.785" cy="5.785" r="5.785" stroke="none"/>
      <circle cx="5.785" cy="5.785" r="5.285" fill="none"/>
    </g>
    <g id="Ellipse_22" data-name="Ellipse 22" transform="translate(159 616.573)" fill="#fff" stroke="#32506f" stroke-width="1">
      <circle cx="5.785" cy="5.785" r="5.785" stroke="none"/>
      <circle cx="5.785" cy="5.785" r="5.285" fill="none"/>
    </g>
    <g id="Ellipse_20" data-name="Ellipse 20" transform="translate(139.43 616.857)" fill="#fff" stroke="#32506f" stroke-width="1">
      <circle cx="5.785" cy="5.785" r="5.785" stroke="none"/>
      <circle cx="5.785" cy="5.785" r="5.285" fill="none"/>
    </g>
    <g id="Path_32" data-name="Path 32" transform="translate(119.86 616.573)" fill="#32506f">
      <path d="M 5.784945011138916 11.06989479064941 C 2.87081503868103 11.06989479064941 0.5000050067901611 8.699074745178223 0.5000050067901611 5.784945011138916 C 0.5000050067901611 2.87081503868103 2.87081503868103 0.5000050067901611 5.784945011138916 0.5000050067901611 C 8.699074745178223 0.5000050067901611 11.06989479064941 2.87081503868103 11.06989479064941 5.784945011138916 C 11.06989479064941 8.699074745178223 8.699074745178223 11.06989479064941 5.784945011138916 11.06989479064941 Z" stroke="none"/>
      <path d="M 5.784945011138916 0.999995231628418 C 3.146514892578125 0.999995231628418 0.999995231628418 3.146514892578125 0.999995231628418 5.784945011138916 C 0.999995231628418 8.423364639282227 3.146514892578125 10.56988525390625 5.784945011138916 10.56988525390625 C 8.423364639282227 10.56988525390625 10.56988525390625 8.423364639282227 10.56988525390625 5.784945011138916 C 10.56988525390625 3.146514892578125 8.423364639282227 0.999995231628418 5.784945011138916 0.999995231628418 M 5.784945011138916 -4.76837158203125e-06 C 8.979885101318359 -4.76837158203125e-06 11.56988525390625 2.590004920959473 11.56988525390625 5.784945011138916 C 11.56988525390625 8.979885101318359 8.979885101318359 11.56988525390625 5.784945011138916 11.56988525390625 C 2.590004920959473 11.56988525390625 -4.76837158203125e-06 8.979885101318359 -4.76837158203125e-06 5.784945011138916 C -4.76837158203125e-06 2.590004920959473 2.590004920959473 -4.76837158203125e-06 5.784945011138916 -4.76837158203125e-06 Z" stroke="none" fill="#32506f"/>
    </g>
  </g>
</svg>
