<svg id="Capa_1" enable-background="new 0 0 511.995 511.995" height="512" viewBox="0 0 511.995 511.995" width="512" xmlns="http://www.w3.org/2000/svg"><g><path d="m316.796 392.51c6.126-4.251 9.783-11.242 9.783-18.698v-35.05h76.241c9.359 0 16.973-7.614 16.973-16.973v-16.371c0-9.359-7.614-16.973-16.973-16.973h-53.741c-4.142 0-7.5 3.358-7.5 7.5s3.358 7.5 7.5 7.5h53.741c1.088 0 1.973.885 1.973 1.973v16.371c0 1.088-.885 1.973-1.973 1.973h-293.646c-1.088 0-1.973-.885-1.973-1.973v-16.371c0-1.088.885-1.973 1.973-1.973h209.905c4.142 0 7.5-3.358 7.5-7.5s-3.358-7.5-7.5-7.5h-57.723v-126.718h216.879c8.696 0 15.771-7.075 15.771-15.771v-17.507c0-8.696-7.075-15.771-15.771-15.771h-3.341l-199.766-94.57c-13.52-6.4-29.028-6.4-42.547 0l-199.762 94.57h-3.342c-8.696 0-15.771 7.075-15.771 15.771v17.507c0 8.696 7.075 15.771 15.771 15.771h52.86c4.142 0 7.5-3.358 7.5-7.5s-3.358-7.5-7.5-7.5h-52.86c-.425 0-.771-.346-.771-.771v-17.507c0-.425.346-.771.771-.771h5.027 438.704 5.027c.425 0 .771.346.771.771v17.507c0 .425-.346.771-.771.771h-365.898c-4.142 0-7.5 3.358-7.5 7.5s3.358 7.5 7.5 7.5h134.02v126.717h-137.183c-9.359 0-16.973 7.614-16.973 16.973v16.371c0 9.359 7.614 16.973 16.973 16.973h72.595v35.05c0 7.456 3.657 14.446 9.783 18.698l24.251 16.831v26.369l-17.71 5.221c-9.611 2.834-16.324 11.812-16.324 21.832v27.814c0 4.142 3.358 7.5 7.5 7.5s7.5-3.358 7.5-7.5v-27.814c0-3.417 2.289-6.478 5.566-7.444 0 0 23.393-7.066 24.194-7.608h19.828v42.866c0 4.142 3.358 7.5 7.5 7.5s7.5-3.358 7.5-7.5v-42.866h20.463c.801.542 24.193 7.608 24.193 7.608 3.277.966 5.566 4.027 5.566 7.444v27.814c0 4.142 3.358 7.5 7.5 7.5s7.5-3.358 7.5-7.5v-27.814c0-10.02-6.713-18.998-16.325-21.832l-17.71-5.221v-26.369zm-103.019-348.904-73.726 69.072h-72.176zm-51.787 69.072 87.865-82.318c2.88-2.698 5.123-2.696 8.001 0l87.866 82.318zm205.672 0-73.726-69.07 145.901 69.07zm-56.083 261.134c0 2.542-1.247 4.926-3.336 6.375l-26.551 18.428c-.19.132-.363.283-.542.427h-19.794v-60.281h50.223zm-111.474 6.375c-2.089-1.45-3.336-3.833-3.336-6.375v-35.05h49.587v60.281h-19.158c-.179-.144-.351-.295-.542-.427zm30.699 52.524v-18.669h15.553v18.669zm30.553-18.669h16.188v18.669h-16.188z"/><path d="m135.715 401.302c0-13.07-10.633-23.704-23.704-23.704h-51.095l-13.883-119.582c-1.381-11.9-11.458-20.875-23.438-20.875-6.725 0-13.147 2.88-17.62 7.902s-6.594 11.734-5.818 18.414l17.863 153.878-11.733 72.655c-.661 4.089 2.119 7.939 6.208 8.6.405.065.808.097 1.205.097 3.615 0 6.8-2.621 7.395-6.305l10.882-67.376h75.419l10.882 67.376c.595 3.684 3.779 6.305 7.395 6.305.397 0 .8-.032 1.205-.097 4.089-.66 6.869-4.511 6.208-8.6l-10.87-67.297c7.977-3.821 13.499-11.973 13.499-21.391zm-118.539-146.281c1.653-1.856 3.933-2.879 6.419-2.879 4.364 0 8.035 3.269 8.538 7.604l14.294 123.125c.643 5.545 5.337 9.727 10.919 9.727h54.665c4.799 0 8.704 3.904 8.704 8.704 0 4.799-3.904 8.704-8.704 8.704h-79.741l-17.213-148.277c-.287-2.469.466-4.852 2.119-6.708z"/><path d="m506.02 245.045c-4.473-5.022-10.896-7.903-17.621-7.903-11.98 0-22.057 8.974-23.439 20.875l-13.882 119.581h-51.096c-13.07 0-23.704 10.633-23.704 23.704 0 9.418 5.522 17.57 13.498 21.391l-10.87 67.297c-.66 4.089 2.119 7.939 6.208 8.6.405.065.808.097 1.205.097 3.615 0 6.8-2.621 7.395-6.305l10.882-67.376h75.42l10.881 67.376c.595 3.684 3.779 6.305 7.395 6.305.397 0 .8-.032 1.205-.097 4.089-.66 6.869-4.511 6.208-8.6l-11.734-72.655 17.864-153.876c.778-6.68-1.342-13.392-5.815-18.414zm-9.083 16.684-17.213 148.277h-79.741c-4.799 0-8.704-3.905-8.704-8.704s3.904-8.704 8.704-8.704h54.665c5.581 0 10.275-4.181 10.919-9.725l14.294-123.126c.503-4.335 4.174-7.604 8.538-7.604 2.486 0 4.766 1.022 6.419 2.879 1.654 1.855 2.407 4.237 2.119 6.707z"/></g></svg>