
<svg version="1.1" id="Capa_1" xmlns="http://www.w3.org/2000/svg" xmlns:xlink="http://www.w3.org/1999/xlink" x="0px" y="0px"
	 viewBox="0 0 512 512" style="enable-background:new 0 0 512 512;" xml:space="preserve"
	 >
	<g>
		<path d="M480.032,354.976c0.896-79.008-38.88-152.448-106.976-194.048c-23.168-14.144-48.256-23.264-73.888-28.32
			C302.176,126.336,304,119.392,304,112c0-26.464-21.536-48-48-48s-48,21.536-48,48c0,7.392,1.824,14.336,4.832,20.608
			c-25.632,5.056-50.72,14.144-73.888,28.288c-68.096,41.6-107.872,115.04-106.976,194.048C13.408,361.6,0,379.168,0,400
			c0,26.464,21.536,48,48,48h416c26.464,0,48-21.536,48-48C512,379.168,498.592,361.6,480.032,354.976z M256,96c8.8,0,16,7.2,16,16
			c0,8.64-6.912,15.616-15.488,15.904c-0.352,0-0.704,0-1.024,0C246.912,127.616,240,120.64,240,112C240,103.2,247.2,96,256,96z
			 M155.616,188.224c30.72-18.752,65.12-28.16,99.552-28.288c0.288-0.032,0.544,0.064,0.832,0.064c0.288,0,0.544-0.064,0.832-0.096
			c34.432,0.16,68.832,9.536,99.52,28.288C414.016,223.424,448,285.248,448.096,352H63.904
			C64,285.248,97.984,223.424,155.616,188.224z M464,416H48c-8.8,0-16-7.2-16-16s7.2-16,16-16h416c8.8,0,16,7.2,16,16
			S472.8,416,464,416z"/>
	</g>
	<g>
		<path d="M375.136,245.216C344.8,211.392,301.408,192,256,192c-8.832,0-16,7.168-16,16c0,8.832,7.168,16,16,16
			c36.32,0,71.072,15.52,95.328,42.592c3.168,3.52,7.52,5.312,11.904,5.312c3.808,0,7.616-1.344,10.688-4.096
			C380.48,261.888,381.056,251.808,375.136,245.216z"/>
	</g>
</svg>
